<svg width="60" height="60" viewBox="0 0 60 60" fill="none" xmlns="http://www.w3.org/2000/svg">
<g filter="url(#filter0_d_7926_66837)">
<rect x="2" y="1" width="56" height="56" rx="12" fill="white" shape-rendering="crispEdges"/>
<rect x="2.5" y="1.5" width="55" height="55" rx="11.5" stroke="url(#paint0_linear_7926_66837)" shape-rendering="crispEdges"/>
<path d="M18.3334 23.1667L27.8591 29.8347C28.6305 30.3746 29.0162 30.6446 29.4357 30.7492C29.8063 30.8416 30.1938 30.8416 30.5644 30.7492C30.9839 30.6446 31.3696 30.3746 32.141 29.8347L41.6667 23.1667M23.9334 38.3333H36.0667C38.0269 38.3333 39.007 38.3333 39.7557 37.9519C40.4142 37.6163 40.9497 37.0809 41.2852 36.4223C41.6667 35.6736 41.6667 34.6935 41.6667 32.7333V25.2667C41.6667 23.3065 41.6667 22.3264 41.2852 21.5777C40.9497 20.9191 40.4142 20.3837 39.7557 20.0481C39.007 19.6667 38.0269 19.6667 36.0667 19.6667H23.9334C21.9732 19.6667 20.9931 19.6667 20.2444 20.0481C19.5858 20.3837 19.0504 20.9191 18.7149 21.5777C18.3334 22.3264 18.3334 23.3065 18.3334 25.2667V32.7333C18.3334 34.6935 18.3334 35.6736 18.7149 36.4223C19.0504 37.0809 19.5858 37.6163 20.2444 37.9519C20.9931 38.3333 21.9732 38.3333 23.9334 38.3333Z" stroke="url(#paint1_linear_7926_66837)" stroke-width="2" stroke-linecap="round" stroke-linejoin="round"/>
</g>
<defs>
<filter id="filter0_d_7926_66837" x="0" y="0" width="60" height="60" filterUnits="userSpaceOnUse" color-interpolation-filters="sRGB">
<feFlood flood-opacity="0" result="BackgroundImageFix"/>
<feColorMatrix in="SourceAlpha" type="matrix" values="0 0 0 0 0 0 0 0 0 0 0 0 0 0 0 0 0 0 127 0" result="hardAlpha"/>
<feOffset dy="1"/>
<feGaussianBlur stdDeviation="1"/>
<feComposite in2="hardAlpha" operator="out"/>
<feColorMatrix type="matrix" values="0 0 0 0 0.0627451 0 0 0 0 0.0941176 0 0 0 0 0.156863 0 0 0 0.05 0"/>
<feBlend mode="normal" in2="BackgroundImageFix" result="effect1_dropShadow_7926_66837"/>
<feBlend mode="normal" in="SourceGraphic" in2="effect1_dropShadow_7926_66837" result="shape"/>
</filter>
<linearGradient id="paint0_linear_7926_66837" x1="2" y1="1" x2="58" y2="57" gradientUnits="userSpaceOnUse">
<stop stop-color="#CE9FFC"/>
<stop offset="1" stop-color="#7367F0"/>
</linearGradient>
<linearGradient id="paint1_linear_7926_66837" x1="18.3334" y1="19.6667" x2="36.5448" y2="42.4309" gradientUnits="userSpaceOnUse">
<stop stop-color="#CE9FFC"/>
<stop offset="1" stop-color="#7367F0"/>
</linearGradient>
</defs>
</svg>
